<svg xmlns="http://www.w3.org/2000/svg" xmlns:xlink="http://www.w3.org/1999/xlink" viewBox="0 0 211.21 31.54"><defs><style>.cls-1{fill:none;}.cls-2,.cls-3{fill:#fff;}.cls-2{fill-rule:evenodd;}.cls-4{clip-path:url(#clip-path);}.cls-5{fill:url(#Безымянный_градиент_66);}.cls-6{clip-path:url(#clip-path-2);}.cls-7{fill:url(#Безымянный_градиент_60);}</style><clipPath id="clip-path" transform="translate(2.15)"><path class="cls-1" d="M9.86,14.65a27.29,27.29,0,0,0-1.28,3.7l0,.14c-.11.32-.17.43-.21.4a17.47,17.47,0,0,0,.41,8.51,14.05,14.05,0,0,0,1.48-.07A17.57,17.57,0,0,0,25.59,9.88a17.44,17.44,0,0,0-.75-5.08,17.55,17.55,0,0,0-15,9.85"/></clipPath><linearGradient id="Безымянный_градиент_66" x1="298.44" y1="691.37" x2="298.65" y2="691.37" gradientTransform="matrix(0, 64.46, 64.46, 0, -44548.88, -19225.16)" gradientUnits="userSpaceOnUse"><stop offset="0" stop-color="#54a142"/><stop offset="0.78" stop-color="#97bf35"/></linearGradient><clipPath id="clip-path-2" transform="translate(2.15)"><path class="cls-1" d="M2.07,17A11.4,11.4,0,0,0,8.75,27.4a17.47,17.47,0,0,1-.41-8.51,6.69,6.69,0,0,1,.13-1.65c.11-.75.23-1.42.36-2.06a13,13,0,0,0-4.94-4.35A11.43,11.43,0,0,0,2.07,17"/></clipPath><linearGradient id="Безымянный_градиент_60" x1="298.87" y1="693.25" x2="299.08" y2="693.25" gradientTransform="matrix(0, 70.12, 70.12, 0, -48602.94, -20945.19)" gradientUnits="userSpaceOnUse"><stop offset="0.01" stop-color="#519f43"/><stop offset="0.78" stop-color="#a1bf35"/></linearGradient></defs><title>logo</title><g id="Layer_2" data-name="Layer 2"><g id="Layer_1-2" data-name="Layer 1"><g id="desktop"><g id="_1920" data-name="1920"><g id="header"><g id="logo"><path id="investors" class="cls-2" d="M139.9,14.84h-1.58L140,5.34h1.58Zm1.31-13a.85.85,0,0,1,.67.25.9.9,0,0,1,.27.68,1,1,0,0,1-.27.67.94.94,0,0,1-.67.28.85.85,0,0,1-.68-.23.84.84,0,0,1-.25-.67,1,1,0,0,1,.26-.69A1,1,0,0,1,141.21,1.86Zm4.44,3.47-.22,1.2a3.73,3.73,0,0,1,2.91-1.37,2.35,2.35,0,0,1,2,.93,3.56,3.56,0,0,1,.47,2.52l-1,6.23h-1.59l1-6.25a3.08,3.08,0,0,0,0-.8,1.32,1.32,0,0,0-1.45-1.26,3,3,0,0,0-2.51,1.53l-1.18,6.78H142.5l1.65-9.5Zm10,7.29,3.43-7.28h1.68L156,14.84h-1.21l-1.87-9.5h1.57Zm9.21,2.4a3.42,3.42,0,0,1-2.78-1.31,4.53,4.53,0,0,1-.85-3.26l.05-.38a6.34,6.34,0,0,1,.84-2.58,4.84,4.84,0,0,1,1.68-1.76A3.88,3.88,0,0,1,166,5.16a3,3,0,0,1,2.3,1,4,4,0,0,1,.91,2.55,7.37,7.37,0,0,1,0,1.15l-.1.73h-6.21a3.16,3.16,0,0,0,.42,2.19,2,2,0,0,0,1.75.94,3.34,3.34,0,0,0,2.6-1.26l.91.77A4,4,0,0,1,167,14.55,4.33,4.33,0,0,1,164.88,15Zm1-8.53a2.32,2.32,0,0,0-1.72.66A4.86,4.86,0,0,0,163,9.22h4.63l0-.14a2.57,2.57,0,0,0-.35-1.84A1.66,1.66,0,0,0,165.89,6.49ZM176,12.27c.08-.66-.28-1.12-1.09-1.39l-1.65-.48c-1.39-.48-2.07-1.28-2-2.39A2.6,2.6,0,0,1,172.38,6a4.05,4.05,0,0,1,2.55-.79,3.38,3.38,0,0,1,2.34.84,2.68,2.68,0,0,1,.87,2.14h-1.58A1.5,1.5,0,0,0,176.11,7a1.82,1.82,0,0,0-1.24-.47,2.31,2.31,0,0,0-1.42.41,1.49,1.49,0,0,0-.65,1c-.07.55.26,1,1,1.2l.8.22a5.11,5.11,0,0,1,2.32,1.1,2.11,2.11,0,0,1,.64,1.68,2.7,2.7,0,0,1-.58,1.54,3.28,3.28,0,0,1-1.41,1,4.66,4.66,0,0,1-1.87.32,3.75,3.75,0,0,1-2.5-.88,2.77,2.77,0,0,1-1-2.23h1.59a1.68,1.68,0,0,0,.51,1.28,2,2,0,0,0,1.4.48,2.7,2.7,0,0,0,1.5-.36A1.4,1.4,0,0,0,176,12.27ZM183.39,3,183,5.34h1.73l-.22,1.25h-1.72l-1,5.92a2,2,0,0,0,0,.42.67.67,0,0,0,.75.68,4.25,4.25,0,0,0,.77-.08l-.12,1.32A4.16,4.16,0,0,1,182,15a1.65,1.65,0,0,1-1.43-.7,2.72,2.72,0,0,1-.37-1.83l1-5.89H179.5l.22-1.25h1.68L181.8,3Zm6.87,2.13a3.43,3.43,0,0,1,2.05.65,3.65,3.65,0,0,1,1.26,1.74,5.44,5.44,0,0,1,.27,2.43v.2a6.42,6.42,0,0,1-.83,2.51,4.89,4.89,0,0,1-1.7,1.74A4.18,4.18,0,0,1,189,15a3.42,3.42,0,0,1-2-.65,3.61,3.61,0,0,1-1.25-1.72,5.56,5.56,0,0,1-.29-2.4,6.62,6.62,0,0,1,.8-2.66,5,5,0,0,1,1.72-1.82A4.16,4.16,0,0,1,190.26,5.16ZM187,10.26a5.52,5.52,0,0,0,0,1.15,2.86,2.86,0,0,0,.62,1.65,1.88,1.88,0,0,0,1.42.64,2.49,2.49,0,0,0,1.46-.39,3.33,3.33,0,0,0,1.13-1.26,5.46,5.46,0,0,0,.59-1.87,9.08,9.08,0,0,0,0-1.36,2.91,2.91,0,0,0-.64-1.68,1.89,1.89,0,0,0-1.42-.65,2.58,2.58,0,0,0-2.09,1,4.8,4.8,0,0,0-1.07,2.6Zm13.92-3.47-.75-.08a2.73,2.73,0,0,0-2.41,1.38l-1.17,6.75H195l1.65-9.5h1.54L198,6.43a2.85,2.85,0,0,1,2.38-1.29,3.27,3.27,0,0,1,.75.13Zm6,5.48c.08-.66-.28-1.12-1.09-1.39l-1.65-.48c-1.39-.48-2.07-1.28-2-2.39A2.6,2.6,0,0,1,203.3,6a4.05,4.05,0,0,1,2.55-.79,3.38,3.38,0,0,1,2.34.84,2.68,2.68,0,0,1,.87,2.14h-1.58A1.5,1.5,0,0,0,207,7a1.82,1.82,0,0,0-1.24-.47,2.31,2.31,0,0,0-1.42.41,1.49,1.49,0,0,0-.65,1c-.07.55.26,1,1,1.2l.8.22a5.11,5.11,0,0,1,2.32,1.1,2.11,2.11,0,0,1,.64,1.68,2.7,2.7,0,0,1-.58,1.54,3.28,3.28,0,0,1-1.41,1,4.66,4.66,0,0,1-1.87.32,3.75,3.75,0,0,1-2.5-.88,2.77,2.77,0,0,1-.95-2.23h1.59a1.68,1.68,0,0,0,.51,1.28,2,2,0,0,0,1.4.48,2.7,2.7,0,0,0,1.5-.36A1.4,1.4,0,0,0,206.91,12.27Z" transform="translate(2.15)"/></g></g></g><path class="cls-3" d="M10.93,27.77c-.71.07-1.41.14-2.12.17,0,0-8.92-3.89-8.81-12.25C.08,9.2,3.1,7.31,3.1,7.31a13.24,13.24,0,0,1,4,2.75A13.88,13.88,0,0,1,9.34,13.5a15.57,15.57,0,0,1,5.15-8.22A19.31,19.31,0,0,1,27.72,0a21.76,21.76,0,0,1,1.5,7.83C29.33,18.41,22.92,26.05,13,27.5c-.67.1-1.35.19-2,.27" transform="translate(2.15)"/><g class="cls-4"><rect class="cls-5" x="5.12" y="2.99" width="22.87" height="26.23" transform="translate(-1.18 4.36) rotate(-13.63)"/></g><g class="cls-6"><rect class="cls-7" x="0.01" y="10.23" width="10.9" height="17.77" transform="translate(-2.71 2.12) rotate(-15.31)"/></g><path class="cls-3" d="M103.92,5.25H91c-2,0-3.57.24-3.63.55L83.61,26.58c0,.12.12.21.26.26a11,11,0,0,0,3.42.35H99.9c.11,0,.22-.11.31-.25a6.92,6.92,0,0,0,.73-2.32,7.35,7.35,0,0,0,.15-2.28c-.07-.43-.15-.49-.29-.49h-9l.61-3.41H99.8c.11,0,.21-.1.29-.23a6.23,6.23,0,0,0,.7-2.21,7.35,7.35,0,0,0,.15-2.16c-.07-.41-.15-.47-.28-.47H93.28l.55-3h9.23c.11,0,.21-.11.3-.24a6.57,6.57,0,0,0,.69-2.21,7.35,7.35,0,0,0,.15-2.16C104.13,5.31,104.05,5.25,103.92,5.25Z" transform="translate(2.15)"/><path class="cls-3" d="M76.36,14.71,84.53,6c.12-.16.08-.23,0-.31a10.81,10.81,0,0,0-3.76-.42,11.6,11.6,0,0,0-3.49.36.83.83,0,0,0-.35.25l-7.26,7.75L71,5.85c0-.18-.18-.24-.36-.3a13.14,13.14,0,0,0-3.49-.31,11.8,11.8,0,0,0-3.11.33c-.16,0-.3.12-.33.29L60,26.52c0,.17,0,.22.16.28a10.92,10.92,0,0,0,3.37.39,11.11,11.11,0,0,0,3.5-.37c.12-.05.21-.09.24-.21L69,16.82l4,9.72c.06.13.08.18.3.28a15.2,15.2,0,0,0,3.91.37,15.9,15.9,0,0,0,4.26-.36c.2-.07.34-.14.27-.33Z" transform="translate(2.15)"/><path class="cls-3" d="M127.41,5.59a11.78,11.78,0,0,0-3.85-.41,11.28,11.28,0,0,0-3.42.35.6.6,0,0,0-.3.25L115,12.67l-2-6.84c0-.14,0-.19-.26-.28a9.39,9.39,0,0,0-3.14-.37,12.8,12.8,0,0,0-3.56.36c-.21.07-.36.13-.31.32L110.34,19,109,26.52c0,.17,0,.22.16.28a11,11,0,0,0,3.38.39,11.21,11.21,0,0,0,3.5-.37c.11-.05.2-.09.23-.21l1.34-7.44,9.9-13.27C127.61,5.74,127.55,5.67,127.41,5.59Z" transform="translate(2.15)"/><path class="cls-3" d="M60.44,7,64.27.73A.25.25,0,0,0,64.19.4,4.7,4.7,0,0,0,61.94,0,7.11,7.11,0,0,0,60,.24c-.19.06-.38.16-.42.3L58.18,7s0,.09.09.13a2.11,2.11,0,0,0,.94.18,3.24,3.24,0,0,0,.95-.11A.47.47,0,0,0,60.44,7Z" transform="translate(2.15)"/><path class="cls-3" d="M48.16,4.53a13.73,13.73,0,0,0-14,14.56c.19,5.45,3.88,8.49,9.79,8.49C51,27.58,58.29,22.16,58,13.2,57.83,8.48,54.85,4.53,48.16,4.53ZM44.92,22.22c-2.51,0-3.34-1.82-3.41-3.89C41.39,15,43,9.88,47.1,9.88c2.48,0,3.47,1.8,3.54,4C50.79,18.18,48.48,22.22,44.92,22.22Z" transform="translate(2.15)"/></g></g></g></svg>