<svg width="72" height="25" viewBox="0 0 72 25" fill="none" xmlns="http://www.w3.org/2000/svg">
<path d="M23.56 8.35934C22.3001 3.44961 18.3043 0 10.0121 0H0L1.35923 9.19029C2.38168 17.4829 5.55321 20.1507 11.1658 21.1332C11.1919 21.1372 11.3698 21.1625 11.372 20.9545C11.3728 20.8797 11.3254 20.8151 11.2605 20.7872C7.46676 19.1899 7.03387 13.9518 6.22347 8.69539L5.5965 4.50618H11.3119C16.5811 4.50618 20.6496 4.4229 23.2254 8.49068C23.2635 8.54791 23.3233 8.5901 23.3941 8.5901C23.4936 8.5901 23.5677 8.50939 23.5677 8.40997C23.5673 8.39163 23.5651 8.37475 23.56 8.35934Z" fill="#5FAF2D"/>
<path d="M20.0549 21.1949L17.6904 17.265L15.3748 21.1949H12.6028L16.1639 15.2755L12.5342 9.78027H15.4302L17.7554 13.4493L19.9731 9.78027H22.7451L19.174 15.4549L22.843 21.1949H20.0549Z" fill="black"/>
<path d="M31.8542 17.3144C31.8542 19.8256 29.9627 21.391 27.4842 21.391C25.2991 21.391 23.4597 20.1844 23.2803 17.5591H25.6447C25.8076 18.7004 26.7211 19.1898 27.7156 19.1898C28.9549 19.1898 29.4898 18.3581 29.4898 17.2821C29.4898 16.157 28.6581 15.4559 27.5003 15.4559C26.5384 15.4559 25.9022 15.9126 25.6088 16.4017H23.3489L24.1299 9.78125H31.5633L31.3153 11.9989H25.998L25.7867 14.1898C25.7867 14.1898 26.345 13.5321 28.0378 13.5321C30.0768 13.5313 31.8542 14.9005 31.8542 17.3144Z" fill="black"/>
<path d="M34.4033 9.78711H35.8862V15.2952L41.6551 9.78711H43.5943L38.2165 14.9533L43.9854 21.1947H42.0297L37.1082 15.931L35.8862 17.1042V21.1947H34.4033V9.78711Z" fill="black"/>
<path d="M51.3191 14.0084H47.6688V14.5136C47.6688 16.8387 47.4352 18.5579 46.9681 19.6713C46.5011 20.7851 45.7729 21.3416 44.7846 21.3416C44.6976 21.3416 44.6187 21.3391 44.5483 21.3336C44.4775 21.328 44.4151 21.3196 44.3608 21.309V19.989C44.4041 20 44.4559 20.0051 44.5157 20.0051C44.5755 20.0051 44.6323 20.0051 44.687 20.0051C44.9691 20.0051 45.2167 19.9021 45.4284 19.6955C45.6405 19.4893 45.814 19.1632 45.9497 18.7178C46.0855 18.2724 46.1886 17.7049 46.2594 17.0148C46.3298 16.3251 46.3654 15.4909 46.3654 14.5132V12.7207H52.6886V21.1949H51.3195V14.0084H51.3191Z" fill="black"/>
<path d="M57.6911 20.8852L53.9102 12.7207H55.5236L58.3918 19.0762L60.7712 12.7207H62.2706L57.7564 24.4541H56.257L57.6911 20.8852Z" fill="black"/>
<path d="M67.697 21.3412C67.0231 21.3412 66.4123 21.2297 65.8638 21.007C65.315 20.7843 64.8454 20.4585 64.454 20.0293C64.0629 19.6001 63.7613 19.0707 63.5496 18.4404C63.338 17.8105 63.2319 17.0878 63.2319 16.273C63.2319 15.241 63.2616 14.3664 63.3214 13.6492C63.3812 12.932 63.4818 12.3292 63.623 11.8402C63.7642 11.3511 63.9462 10.9549 64.1689 10.6504C64.3916 10.3463 64.666 10.0965 64.9918 9.90093C65.2959 9.7164 65.6055 9.58579 65.9207 9.50985C66.2358 9.43391 66.5535 9.38769 66.8742 9.37118C67.1944 9.35504 67.5151 9.35504 67.8357 9.37118C68.156 9.38732 68.4795 9.39576 68.8053 9.39576C69.3266 9.39576 69.6825 9.35797 69.8729 9.28167C70.0629 9.20572 70.1579 9.05898 70.1579 8.8418H71.3803C71.3803 9.18958 71.3396 9.48014 71.2582 9.71346C71.1767 9.94715 71.038 10.1372 70.8425 10.2839C70.647 10.4307 70.3916 10.5341 70.0765 10.5936C69.7614 10.6534 69.3758 10.6831 68.9194 10.6831C68.6802 10.6831 68.4223 10.6724 68.1453 10.6504C67.8683 10.6288 67.5884 10.6207 67.3063 10.6259C67.0235 10.6314 66.7439 10.6611 66.4669 10.7154C66.1899 10.77 65.9317 10.8676 65.6928 11.0089C65.4863 11.1285 65.3153 11.2752 65.1796 11.4487C65.0435 11.6226 64.9323 11.8479 64.8454 12.1252C64.7581 12.4022 64.6931 12.7445 64.6499 13.1521C64.6062 13.5597 64.5736 14.0564 64.5523 14.6434C64.9323 14.0568 65.4265 13.6165 66.0351 13.3234C66.6434 13.0299 67.3063 12.8835 68.0235 12.8835C68.6101 12.8835 69.148 12.9789 69.637 13.1686C70.126 13.3586 70.5439 13.633 70.892 13.9915C71.2395 14.3499 71.5113 14.7846 71.7068 15.2953C71.9024 15.806 72 16.3819 72 17.0228C72 17.6315 71.8965 18.1961 71.6903 18.7178C71.4838 19.2394 71.1907 19.6954 70.8106 20.0869C70.4302 20.478 69.9767 20.785 69.4499 21.0077C68.9216 21.2297 68.3379 21.3412 67.697 21.3412ZM67.6805 20.0539C68.1585 20.0539 68.5793 19.9779 68.9433 19.8257C69.3072 19.6734 69.6087 19.4647 69.8476 19.1983C70.0864 18.9324 70.2658 18.6198 70.3854 18.2614C70.505 17.9029 70.5648 17.5174 70.5648 17.1043C70.5648 16.6806 70.5021 16.2895 70.3773 15.9311C70.2522 15.5726 70.0703 15.263 69.8314 15.0022C69.5922 14.7413 69.2962 14.5377 68.9433 14.391C68.5903 14.2442 68.1853 14.1708 67.7293 14.1708C67.2186 14.1708 66.7733 14.2468 66.3932 14.399C66.0128 14.5513 65.6951 14.7494 65.4397 14.9937C65.1844 15.2381 64.9914 15.5209 64.8612 15.8412C64.7309 16.1618 64.6656 16.4905 64.6656 16.8273C64.6656 17.3053 64.739 17.7426 64.8857 18.1392C65.0325 18.5358 65.2387 18.8755 65.505 19.1576C65.771 19.4405 66.0891 19.6602 66.4585 19.8176C66.8276 19.975 67.2351 20.0539 67.6805 20.0539Z" fill="black"/>
</svg>
